<svg aria-hidden="true" style="position: absolute; width: 0; height: 0; overflow: hidden;" version="1.1" xmlns="http://www.w3.org/2000/svg" xmlns:xlink="http://www.w3.org/1999/xlink">
<defs>
<symbol id="icon-facebook" viewBox="0 0 32 32">
<path fill="#1877f2" style="fill: var(--color1, #1877f2)" d="M31.997 15.999c0-8.836-7.163-15.999-15.999-15.999s-15.999 7.163-15.999 15.999c0 7.985 5.851 14.604 13.499 15.804v-11.18h-4.062v-4.625h4.062v-3.525c0-4.010 2.389-6.225 6.043-6.225 1.75 0 3.581 0.313 3.581 0.313v3.937h-2.017c-1.987 0-2.607 1.233-2.607 2.498v3.001h4.437l-0.709 4.625h-3.728v11.18c7.649-1.2 13.499-7.819 13.499-15.804z"></path>
</symbol>
<symbol id="icon-google" viewBox="0 0 32 32">
<path fill="#4285f4" style="fill: var(--color2, #4285f4)" d="M16.32 13.713v5.487h9.075c-0.367 2.353-2.741 6.899-9.075 6.899-5.46 0-9.919-4.519-9.919-10.099s4.46-10.099 9.919-10.099c3.107 0 5.188 1.319 6.38 2.465l4.339-4.184c-2.787-2.601-6.4-4.183-10.719-4.183-8.847 0-16 7.153-16 16s7.153 16 16 16c9.235 0 15.36-6.492 15.36-15.635 0-1.051-0.113-1.853-0.252-2.652z"></path>
</symbol>
<symbol id="icon-twitter" viewBox="0 0 32 32">
<path fill="#1da1f2" style="fill: var(--color3, #1da1f2)" d="M31.939 6.092c-1.18 0.519-2.44 0.872-3.767 1.033 1.352-0.815 2.392-2.099 2.884-3.631-1.268 0.74-2.673 1.279-4.169 1.579-1.195-1.279-2.897-2.079-4.788-2.079-3.623 0-6.56 2.937-6.56 6.556 0 0.52 0.060 1.020 0.169 1.499-5.453-0.257-10.287-2.876-13.521-6.835-0.569 0.963-0.888 2.081-0.888 3.3 0 2.28 1.16 4.284 2.917 5.461-1.076-0.035-2.088-0.331-2.971-0.821v0.081c0 3.18 2.257 5.832 5.261 6.436-0.551 0.148-1.132 0.228-1.728 0.228-0.419 0-0.82-0.040-1.221-0.115 0.841 2.604 3.26 4.503 6.139 4.556-2.24 1.759-5.079 2.807-8.136 2.807-0.52 0-1.039-0.031-1.56-0.089 2.919 1.859 6.357 2.945 10.076 2.945 12.072 0 18.665-9.995 18.665-18.648 0-0.279 0-0.56-0.020-0.84 1.281-0.919 2.4-2.080 3.28-3.397z"></path>
</symbol>
<symbol id="icon-user-outline" viewBox="0 0 24 24">
<path d="M12 6c1.654 0 3 1.346 3 3s-1.346 3-3 3-3-1.346-3-3 1.346-3 3-3M12 4c-2.764 0-5 2.238-5 5s2.236 5 5 5 5-2.238 5-5-2.236-5-5-5z"></path>
<path d="M12 17c2.021 0 3.301 0.771 3.783 1.445-0.683 0.26-1.969 0.555-3.783 0.555-1.984 0-3.206-0.305-3.818-0.542 0.459-0.715 1.777-1.458 3.818-1.458M12 15c-3.75 0-6 2-6 4 0 1 2.25 2 6 2 3.518 0 6-1 6-2s-2.354-4-6-4z"></path>
</symbol>
<symbol id="icon-lock-closed-outline" viewBox="0 0 24 24">
<path d="M13.3 17c0 0.718-0.582 1.3-1.3 1.3s-1.3-0.582-1.3-1.3c0-0.718 0.582-1.3 1.3-1.3s1.3 0.582 1.3 1.3z"></path>
<path d="M17 10h-1v-2c0-2.206-1.794-4-4-4s-4 1.794-4 4v2h-1c-1.104 0-2 0.896-2 2v7c0 1.104 0.896 2 2 2h10c1.104 0 2-0.896 2-2v-7c0-1.104-0.896-2-2-2zM10 8c0-1.104 0.896-2 2-2s2 0.896 2 2v3h-4v-3zM17 19h-10v-7h10.003l-0.003 7z"></path>
</symbol>
</defs>
</svg>
